<?xml version="1.0" encoding="UTF-8" standalone="no"?>
<!-- Created with Inkscape (http://www.inkscape.org/) -->

<svg
   width="210mm"
   height="297mm"
   viewBox="0 0 210 297"
   version="1.1"
   id="svg5"
   sodipodi:docname="isologotipo.svg"
   inkscape:version="1.2.2 (732a01da63, 2022-12-09)"
   xmlns:inkscape="http://www.inkscape.org/namespaces/inkscape"
   xmlns:sodipodi="http://sodipodi.sourceforge.net/DTD/sodipodi-0.dtd"
   xmlns="http://www.w3.org/2000/svg"
   xmlns:svg="http://www.w3.org/2000/svg">
  <sodipodi:namedview
     id="namedview7"
     pagecolor="#ffffff"
     bordercolor="#000000"
     borderopacity="0.25"
     inkscape:showpageshadow="2"
     inkscape:pageopacity="0.0"
     inkscape:pagecheckerboard="0"
     inkscape:deskcolor="#d1d1d1"
     inkscape:document-units="mm"
     showgrid="false"
     inkscape:zoom="1.104894"
     inkscape:cx="534.89293"
     inkscape:cy="466.10805"
     inkscape:window-width="1920"
     inkscape:window-height="1057"
     inkscape:window-x="-8"
     inkscape:window-y="-8"
     inkscape:window-maximized="1"
     inkscape:current-layer="layer1" />
  <defs
     id="defs2" />
  <g
     inkscape:label="Capa 1"
     inkscape:groupmode="layer"
     id="layer1">
    <rect
       style="fill:#1e2edf;fill-opacity:1;stroke-width:0.264583"
       id="rect466"
       width="22.351196"
       height="63.667049"
       x="93.947067"
       y="91.141571" />
    <rect
       style="fill:#1e2edf;fill-opacity:1;stroke-width:0.264583"
       id="rect3173"
       width="1.6932725"
       height="2.3705816"
       x="-58.587231"
       y="144.60547" />
    <path
       style="fill:#008000;fill-opacity:1;stroke-width:0.149484"
       id="path3342"
       d="m 93.217407,80.260005 c -0.912682,0.04571 -1.825648,0.0455 -2.738479,0.0503 -1.073026,0.01285 -2.151382,0.03921 -3.219655,0.331616 -0.205059,0.05613 -0.408705,0.141919 -0.613058,0.212878 -0.736984,0.330101 -1.466721,0.809637 -2.139611,1.664056 -0.383026,0.486358 -0.46031,0.671239 -0.805809,1.286521 -0.677747,1.281299 -1.147809,3.025848 -1.534644,4.907374 -0.287393,1.580933 -0.41908,3.294324 -0.492471,5.015468 -0.06065,1.496106 -0.04149,2.996287 0.01596,4.489545 0.03557,1.127381 0.122651,2.235207 0.211405,3.341027 0.08559,1.1426 0.19814,2.26791 0.311693,3.39376 0.0848,0.87764 0.189235,1.74254 0.270355,2.62243 0,0 1.25739,1.54391 1.25739,1.54391 v 0 c -0.08035,-0.89108 -0.196817,-1.75764 -0.282181,-2.64567 -0.112123,-1.12176 -0.22993,-2.23884 -0.314838,-3.37699 -0.08478,-1.10007 -0.179509,-2.19662 -0.219676,-3.315557 -0.06715,-1.473482 -0.09905,-2.954428 -0.03785,-4.434891 0.06653,-1.682134 0.184013,-3.361871 0.459159,-4.91306 0.375955,-1.857361 0.824941,-3.516124 1.49106,-4.779574 0.337531,-0.595552 0.411247,-0.771401 0.785247,-1.241393 0.662299,-0.832286 1.380578,-1.298758 2.105575,-1.608286 0.201956,-0.06794 0.403283,-0.149361 0.605866,-0.203819 1.068492,-0.287225 2.146141,-0.300185 3.219161,-0.299347 0.930916,0.0048 1.861952,0.0054 2.792729,0.0503 0,0 -1.127337,-2.090608 -1.127337,-2.090608 z" />
    <path
       style="fill:#008000;fill-opacity:1;stroke-width:0.160218"
       id="path3344"
       d="m 134.18164,131.95442 c 0.35228,2.45357 0.70395,4.90371 0.99838,7.40911 0.19982,1.93579 0.38668,3.90785 0.37268,5.92678 -0.008,1.17923 -0.0449,1.42633 -0.12763,2.56916 -0.15913,1.55076 -0.42316,3.02727 -0.77581,4.34664 -0.17772,0.66492 -0.30023,1.00031 -0.50265,1.60735 -0.58809,1.66576 -1.25014,2.47189 -2.05702,3.20028 -0.83576,0.6432 -1.70063,0.96861 -2.56596,1.19466 -0.83354,0.25241 -1.66866,0.0968 -2.502,-0.052 -0.6571,-0.10284 -1.30469,-0.373 -1.9509,-0.68395 -0.25603,-0.11722 -0.13451,-0.0495 -0.36502,-0.19733 0,0 1.17698,2.3222 1.17698,2.3222 v 0 c 0.22985,0.11639 0.10984,0.0599 0.36017,0.16786 0.64367,0.28397 1.28976,0.51431 1.94215,0.61499 0.83745,0.13601 1.67655,0.25754 2.51306,-0.006 0.87158,-0.24743 1.74305,-0.59113 2.582,-1.27239 0.83653,-0.77685 1.49772,-1.6123 2.10432,-3.3541 0.21319,-0.65278 0.32106,-0.94807 0.50765,-1.66438 0.35602,-1.36675 0.62864,-2.88581 0.79434,-4.47794 0.032,-0.43074 0.0737,-0.85736 0.0959,-1.29221 0.12762,-2.50267 -0.0741,-4.98058 -0.3283,-7.3848 -0.28025,-2.47103 -0.62555,-4.88288 -0.93246,-7.33128 0,0 -1.33986,-1.64276 -1.33986,-1.64276 z" />
    <path
       style="fill:#008000;fill-opacity:1;stroke-width:0.264583"
       id="path3346"
       d="m 75.958837,104.56829 c 1.437146,1.4684 2.75503,3.04834 4.071096,4.62457 2.030098,2.55534 2.385714,3.07162 6.081057,4.41583 0.179906,0.0654 0.313163,-0.22029 0.469744,-0.33043 1.079481,-1.26181 1.711028,-2.82585 2.249117,-4.37785 0.190727,-0.55659 0.322326,-1.12888 0.442388,-1.70372 0,0 -3.466213,-1.84851 -3.466213,-1.84851 v 0 c -0.09561,0.56598 -0.203288,1.12974 -0.376849,1.67833 -0.476882,1.46814 -1.057619,2.98073 -2.144099,4.11138 -1.444122,0.58809 -0.409866,0.0569 2.647064,2.00205 0.152405,0.097 -0.335918,-0.14406 -0.477573,-0.25616 -0.708165,-0.56041 -1.313434,-1.54117 -1.914461,-2.19941 -1.288336,-1.55092 -2.583953,-3.09543 -3.924676,-4.60146 0,0 -3.656595,-1.51462 -3.656595,-1.51462 z" />
    <path
       style="fill:#008000;fill-opacity:1;stroke-width:0.264583"
       id="path3348"
       d="m 123.57137,153.61099 c -1.12399,0.95928 -2.31009,1.83865 -3.39503,2.84513 -0.38488,0.40878 -0.99979,0.95827 -0.78484,1.60628 0.13928,0.4199 0.40463,0.59023 0.7143,0.88278 0.18935,0.13849 0.37471,0.28261 0.56806,0.41546 0.64227,0.44128 1.324,0.83931 1.99903,1.2275 4.26914,2.45506 2.74349,1.6855 5.03381,2.8047 1.10555,0.49661 0.56575,0.26644 1.61779,0.69431 0,0 -3.04674,-2.4013 -3.04674,-2.4013 v 0 c -1.02425,-0.42945 -0.49733,-0.19786 -1.57893,-0.6989 -1.70468,-0.87063 -1.29071,-0.6803 1.58901,0.99325 0.24302,0.14123 -0.4843,-0.28542 -0.72596,-0.42894 -0.26825,-0.15931 -0.99207,-0.59034 -1.26195,-0.76257 -0.19157,-0.12225 -0.37813,-0.25217 -0.56719,-0.37826 -0.23593,-0.17363 -0.86563,-0.50436 -0.9032,-0.87015 -0.0423,-0.41201 0.46157,-0.76526 0.66592,-1.03643 1.07187,-1.02473 2.25329,-1.91036 3.43407,-2.80411 0,0 -3.35815,-2.08875 -3.35815,-2.08875 z" />
    <text
       xml:space="preserve"
       style="font-style:normal;font-variant:normal;font-weight:normal;font-stretch:normal;font-size:5.35439px;font-family:sans-serif;-inkscape-font-specification:'sans-serif, Normal';font-variant-ligatures:normal;font-variant-caps:normal;font-variant-numeric:normal;font-variant-east-asian:normal;fill:#008000;fill-opacity:1;stroke-width:0.125493"
       x="93.286201"
       y="162.24831"
       id="text3414"
       transform="scale(1.0198888,0.98049907)"><tspan
         sodipodi:role="line"
         id="tspan3412"
         style="font-size:5.35439px;stroke-width:0.125493"
         x="93.286201"
         y="162.24831">A.C.L.L</tspan></text>
  </g>
</svg>
