<?xml version="1.0" encoding="UTF-8" standalone="no"?>
<!-- Created with Inkscape (http://www.inkscape.org/) -->

<svg
   width="210mm"
   height="297mm"
   viewBox="0 0 210 297"
   version="1.1"
   id="svg5"
   sodipodi:docname="isotipo.svg"
   inkscape:version="1.2.2 (732a01da63, 2022-12-09)"
   xmlns:inkscape="http://www.inkscape.org/namespaces/inkscape"
   xmlns:sodipodi="http://sodipodi.sourceforge.net/DTD/sodipodi-0.dtd"
   xmlns="http://www.w3.org/2000/svg"
   xmlns:svg="http://www.w3.org/2000/svg">
  <sodipodi:namedview
     id="namedview7"
     pagecolor="#ffffff"
     bordercolor="#000000"
     borderopacity="0.25"
     inkscape:showpageshadow="2"
     inkscape:pageopacity="0.0"
     inkscape:pagecheckerboard="0"
     inkscape:deskcolor="#d1d1d1"
     inkscape:document-units="mm"
     showgrid="false"
     inkscape:zoom="1.104894"
     inkscape:cx="534.89293"
     inkscape:cy="466.10805"
     inkscape:window-width="1920"
     inkscape:window-height="1057"
     inkscape:window-x="-8"
     inkscape:window-y="-8"
     inkscape:window-maximized="1"
     inkscape:current-layer="layer1" />
  <defs
     id="defs2" />
  <g
     inkscape:label="Capa 1"
     inkscape:groupmode="layer"
     id="layer1">
    <rect
       style="fill:#1e2edf;fill-opacity:1;stroke-width:0.264583"
       id="rect466"
       width="22.351196"
       height="63.667049"
       x="93.947067"
       y="91.141571" />
    <rect
       style="fill:#1e2edf;fill-opacity:1;stroke-width:0.264583"
       id="rect3173"
       width="1.6932725"
       height="2.3705816"
       x="-58.587231"
       y="144.60547" />
    <path
       style="fill:#008000;fill-opacity:1;stroke-width:0.264583"
       id="path3342"
       d="m 111.03247,80.499468 c -2.58087,0.05064 -5.16254,0.0504 -7.74383,0.05573 -3.03429,0.01423 -6.083648,0.04344 -9.104495,0.367388 -0.579863,0.06218 -1.155729,0.157228 -1.733595,0.235841 -2.084033,0.36571 -4.147574,0.896975 -6.050362,1.843561 -1.083114,0.538822 -1.301657,0.743646 -2.278655,1.4253 -1.916523,1.419514 -3.245757,3.35225 -4.339645,5.436738 -0.812684,1.75147 -1.185067,3.649683 -1.3926,5.556488 -0.17149,1.657498 -0.117322,3.319497 0.04514,4.973846 0.100582,1.24899 0.346829,2.47632 0.597808,3.70142 0.242025,1.26585 0.560295,2.51256 0.881401,3.75984 0.239795,0.97232 0.535115,1.93052 0.764506,2.90532 0,0 3.555629,1.71046 3.555629,1.71046 v 0 c -0.227219,-0.9872 -0.556556,-1.94724 -0.797949,-2.93106 -0.317058,-1.24276 -0.650192,-2.48036 -0.890294,-3.74127 -0.239736,-1.21874 -0.507611,-2.43357 -0.621196,-3.67322 -0.189878,-1.63242 -0.28008,-3.273119 -0.107024,-4.913282 0.188145,-1.863592 0.520351,-3.724518 1.298403,-5.443034 1.063119,-2.057718 2.332757,-3.895413 4.216397,-5.295154 0.954466,-0.659794 1.162918,-0.854612 2.22051,-1.375302 1.87284,-0.922067 3.90398,-1.438857 5.954115,-1.781775 0.571088,-0.07527 1.140398,-0.165473 1.713258,-0.225806 3.021468,-0.318207 6.068828,-0.332566 9.103098,-0.331637 2.63243,0.0054 5.2652,0.006 7.89724,0.05573 0,0 -3.18787,-2.316125 -3.18787,-2.316125 z" />
    <path
       style="fill:#008000;fill-opacity:1;stroke-width:0.264583"
       id="path3344"
       d="m 125.48828,136.50426 c 0.93713,2.51526 1.87267,5.027 2.6559,7.59537 0.53158,1.98446 1.02865,4.00609 0.99142,6.07579 -0.0217,1.20887 -0.11933,1.46219 -0.33953,2.63374 -0.42331,1.58975 -1.1257,3.10339 -2.06381,4.45592 -0.47277,0.68163 -0.79868,1.02546 -1.33716,1.64776 -1.56444,1.70764 -3.32564,2.53403 -5.47213,3.28073 -2.2233,0.65937 -4.52402,0.99296 -6.826,1.22469 -2.21738,0.25876 -4.43898,0.0992 -6.65584,-0.0532 -1.74804,-0.1055 -3.47077,-0.38238 -5.18982,-0.70115 -0.68109,-0.12019 -0.35783,-0.0508 -0.97103,-0.20229 0,0 3.13102,2.38059 3.13102,2.38059 v 0 c 0.61145,0.11932 0.2922,0.0613 0.95813,0.17207 1.7123,0.29111 3.43105,0.52724 5.16653,0.63046 2.2278,0.13943 4.46,0.26401 6.68528,-0.006 2.31859,-0.25366 4.6369,-0.60599 6.86868,-1.30437 2.22534,-0.79638 3.98425,-1.65285 5.59793,-3.43843 0.56713,-0.66919 0.8541,-0.9719 1.35047,-1.70622 0.94709,-1.40111 1.67231,-2.95836 2.1131,-4.59052 0.085,-0.44157 0.19607,-0.87891 0.25506,-1.32469 0.33949,-2.56559 -0.19722,-5.1058 -0.87333,-7.57046 -0.74555,-2.53315 -1.66411,-5.00563 -2.48056,-7.51559 0,0 -3.56431,-1.68406 -3.56431,-1.68406 z" />
    <path
       style="fill:#008000;fill-opacity:1;stroke-width:0.264583"
       id="path3346"
       d="m 75.479907,106.96294 c 1.437146,1.4684 2.75503,3.04834 4.071096,4.62457 2.030098,2.55534 2.385714,3.07162 6.081057,4.41583 0.179906,0.0654 0.313163,-0.22029 0.469744,-0.33043 1.079481,-1.26181 1.711028,-2.82585 2.249117,-4.37785 0.190727,-0.55659 0.322326,-1.12888 0.442388,-1.70372 0,0 -3.466213,-1.84851 -3.466213,-1.84851 v 0 c -0.09561,0.56598 -0.203288,1.12974 -0.376849,1.67833 -0.476882,1.46814 -1.057619,2.98073 -2.144099,4.11138 -1.444122,0.58809 -0.409866,0.0569 2.647064,2.00205 0.152405,0.097 -0.335918,-0.14406 -0.477573,-0.25616 -0.708165,-0.56041 -1.313434,-1.54117 -1.914461,-2.19941 -1.288336,-1.55092 -2.583953,-3.09543 -3.924676,-4.60146 0,0 -3.656595,-1.51462 -3.656595,-1.51462 z" />
    <path
       style="fill:#008000;fill-opacity:1;stroke-width:0.264583"
       id="path3348"
       d="m 100.34328,157.68189 c -1.123997,0.95928 -2.310097,1.83865 -3.395037,2.84513 -0.38488,0.40878 -0.99979,0.95827 -0.78484,1.60628 0.13928,0.4199 0.40463,0.59023 0.7143,0.88278 0.18935,0.13849 0.37471,0.28261 0.56806,0.41546 0.64227,0.44128 1.324,0.83931 1.99903,1.2275 4.269147,2.45506 2.743497,1.6855 5.033817,2.8047 1.10555,0.49661 0.56575,0.26644 1.61779,0.69431 0,0 -3.04674,-2.4013 -3.04674,-2.4013 v 0 c -1.02425,-0.42945 -0.49733,-0.19786 -1.57893,-0.6989 -1.704687,-0.87063 -1.29071,-0.6803 1.58901,0.99325 0.24302,0.14123 -0.4843,-0.28542 -0.72596,-0.42894 -0.26825,-0.15931 -0.99207,-0.59034 -1.26195,-0.76257 -0.19157,-0.12225 -0.37813,-0.25217 -0.56719,-0.37826 -0.23593,-0.17363 -0.865637,-0.50436 -0.903207,-0.87015 -0.0423,-0.41201 0.461577,-0.76526 0.665927,-1.03643 1.07187,-1.02473 2.25329,-1.91036 3.43407,-2.80411 0,0 -3.35815,-2.08875 -3.35815,-2.08875 z" />
  </g>
</svg>
